<svg width="16" height="14" xmlns="http://www.w3.org/2000/svg"><path d="M12.3 3.4L15 .7l-.7-.7-2.9 2.9C10.4 2.4 9.2 2 8 2 3.6 2 0 7 0 7s1.5 2.1 3.7 3.6L1 13.3l.7.7 2.9-2.9c1 .5 2.2.9 3.4.9 4.4 0 8-5 8-5s-1.5-2.1-3.7-3.6zM1.3 7C2.3 5.8 5 3 8 3c.9 0 1.8.3 2.6.7l-.9.9C9.2 4.2 8.6 4 8 4 6.3 4 5 5.3 5 7c0 .6.2 1.2.6 1.7L4.5 9.8C3 8.9 1.9 7.7 1.3 7zM10 7c0 1.1-.9 2-2 2-.4 0-.7-.1-1-.3L9.7 6c.2.3.3.6.3 1zM6 7c0-1.1.9-2 2-2 .4 0 .7.1 1 .3L6.3 8c-.2-.3-.3-.6-.3-1zm2 4c-.9 0-1.8-.3-2.6-.7l.9-.9c.5.4 1.1.6 1.7.6 1.7 0 3-1.3 3-3 0-.6-.2-1.2-.6-1.7l1.1-1.1c1.5.9 2.6 2.1 3.2 2.8-1 1.2-3.7 4-6.7 4z" fill="#94979B" fill-rule="nonzero"/></svg>